PathFileType	4	(X/Y/Z)	/Users/itak/Documents/Research/Walk-IL/dataset/trc/00533_00183.trc
DataRate	CameraRate	NumFrames	NumMarkers	Units	OrigDataRate	OrigDataStartFrame	OrigNumFrames
100.000000	100.000000	4	53	mm	100.000000	130	522
Frame#	Time	RPSI			LPSI			L3			STRN			T10			C7			CLAV			RBAK			LBAK			LSHO			LUPA			LAEL			LAOL			LWTS			LWPS			LFRA			LIFD			LHPS			LHTS			RSHO			RUPA			RAEL			RAOL			RWTS			RWPS			RFRA			RIFD			RHTS			RHPS			RBHD			LFHD			RFHD			LBHD			LHIP			RHIP			RASI			LASI			LKNE			LTHI			LANK			LTIP			LTOE			LMT1			LMT5			LHEE			RKNE			RTHI			RANK			RTIP			RTOE			RMT1			RMT5			RHEE			
		X1	Y1	Z1	X2	Y2	Z2	X3	Y3	Z3	X4	Y4	Z4	X5	Y5	Z5	X6	Y6	Z6	X7	Y7	Z7	X8	Y8	Z8	X9	Y9	Z9	X10	Y10	Z10	X11	Y11	Z11	X12	Y12	Z12	X13	Y13	Z13	X14	Y14	Z14	X15	Y15	Z15	X16	Y16	Z16	X17	Y17	Z17	X18	Y18	Z18	X19	Y19	Z19	X20	Y20	Z20	X21	Y21	Z21	X22	Y22	Z22	X23	Y23	Z23	X24	Y24	Z24	X25	Y25	Z25	X26	Y26	Z26	X27	Y27	Z27	X28	Y28	Z28	X29	Y29	Z29	X30	Y30	Z30	X31	Y31	Z31	X32	Y32	Z32	X33	Y33	Z33	X34	Y34	Z34	X35	Y35	Z35	X36	Y36	Z36	X37	Y37	Z37	X38	Y38	Z38	X39	Y39	Z39	X40	Y40	Z40	X41	Y41	Z41	X42	Y42	Z42	X43	Y43	Z43	X44	Y44	Z44	X45	Y45	Z45	X46	Y46	Z46	X47	Y47	Z47	X48	Y48	Z48	X49	Y49	Z49	X50	Y50	Z50	X51	Y51	Z51	X52	Y52	Z52	X53	Y53	Z53	

131	1.3	-1158.660034179688	965.4596557617188	-482.9010925292969	-1090.724487304688	965.0830688476562	-586.4022827148438	-1120.426879882812	1041.083129882812	-539.30224609375	-914.9600830078125	1193.16552734375	-433.5123901367188	-1128.494750976562	1146.91943359375	-538.7665405273438	-1080.131958007812	1374.082153320312	-508.7134399414062	-943.8997192382812	1289.60205078125	-446.5703430175781	-1166.263305664062	1254.26513671875	-457.8716430664062	-1067.454467773438	1322.19580078125	-599.3300170898438	-949.2796630859375	1365.56201171875	-624.1339111328125	-942.0711059570312	1241.167114257812	-690.0946044921875	-928.2302856445312	1031.574584960938	-718.0555419921875	-1023.434204101562	1024.930541992188	-688.0747680664062	-870.8245849609375	841.0375366210938	-656.8840942382812	-926.3182373046875	809.5728149414062	-725.8363647460938	-915.9539184570312	946.1306762695312	-716.419677734375	-868.561279296875	683.05615234375	-656.0899047851562	-907.5799560546875	754.896484375	-713.9744262695312	-856.3707275390625	763.8812866210938	-674.267822265625	-1095.590942382812	1364.241455078125	-352.6076965332031	-1140.900268554688	1298.2373046875	-312.5632629394531	-1179.359375	1033.38525390625	-279.8310546875	-1202.005859375	1019.276672363281	-340.8973388671875	-1099.400024414062	830.75390625	-237.1798248291016	-1185.383178710938	809.8198852539062	-256.8788146972656	-1183.862182617188	979.29052734375	-271.6193237304688	-1100.644897460938	671.7528686523438	-231.5617065429688	-1107.5205078125	738.61572265625	-207.0454864501953	-1170.095947265625	735.9339599609375	-239.5004272460938	-1075.662963867188	1521.909790039062	-408.7876892089844	-892.167236328125	1582.843139648438	-463.0596923828125	-958.0158081054688	1569.405883789062	-354.1961975097656	-1006.568420410156	1535.489624023438	-551.6011352539062	-933.0408935546875	888.1788940429688	-643.6060180664062	-1132.125366210938	868.156005859375	-318.6119689941406	-1014.462707519531	914.197998046875	-328.2172546386719	-888.92822265625	919.986328125	-535.5676879882812	-976.7156982421875	465.1541137695312	-604.1688842773438	-940.1465454101562	621.8212280273438	-616.2059326171875	-1102.576293945312	48.44929504394531	-626.90087890625	-1017.506774902344	316.6458435058594	-618.4290771484375	-962.7462768554688	40.61526870727539	-474.8167419433594	-1044.52880859375	45.19018173217773	-487.4024963378906	-1004.205200195312	45.95446014404297	-580.2037353515625	-1174.129516601562	45.82968139648438	-597.3717651367188	-1029.4296875	491.5438232421875	-310.4331970214844	-1086.606811523438	741.9977416992188	-298.0419616699219	-1204.793334960938	96.96809387207031	-386.1182250976562	-1052.827026367188	351.7799987792969	-318.6196594238281	-1021.004760742188	45.72212219238281	-328.7094421386719	-1055.079467773438	59.24570465087891	-393.6681213378906	-1120.685180664062	61.60173797607422	-321.2267761230469	-1226.623779296875	103.9412994384766	-452.7694396972656	
132	1.31	-1157.599365234375	965.1333618164062	-483.1606140136719	-1089.556762695312	964.9861450195312	-586.6102294921875	-1118.98828125	1041.29296875	-539.70849609375	-913.4667358398438	1192.703979492188	-433.0387878417969	-1126.8095703125	1147.245361328125	-539.1694946289062	-1077.75439453125	1374.1767578125	-508.53857421875	-942.0199584960938	1289.2734375	-446.0069580078125	-1164.430297851562	1254.522583007812	-458.2654113769531	-1064.876098632812	1322.38671875	-599.1233520507812	-946.5110473632812	1365.587890625	-623.4375	-939.0519409179688	1241.289306640625	-689.5796508789062	-925.3165893554688	1031.721923828125	-717.8887939453125	-1020.443542480469	1025.08203125	-688.4108276367188	-868.5125732421875	840.8623657226562	-656.6493530273438	-923.5662841796875	809.7133178710938	-726.0175170898438	-913.0595703125	946.2415161132812	-716.2841186523438	-866.62744140625	682.8903198242188	-656.2659301757812	-905.0398559570312	754.95458984375	-714.1890869140625	-854.2405395507812	763.6837158203125	-674.1561279296875	-1093.9521484375	1364.110595703125	-352.5125122070312	-1139.64794921875	1298.145263671875	-312.8733825683594	-1179.350708007812	1033.38720703125	-281.0580139160156	-1201.700927734375	1019.522094726562	-342.3519592285156	-1100.124877929688	830.4688110351562	-238.4664611816406	-1186.03466796875	809.7538452148438	-258.6492309570312	-1184.079223632812	979.2858276367188	-273.0258483886719	-1101.563354492188	671.48876953125	-233.2578125	-1108.506713867188	738.2991943359375	-208.6284942626953	-1170.939453125	735.7761840820312	-241.3911437988281	-1073.122924804688	1521.759887695312	-407.9654846191406	-889.4200439453125	1582.342407226562	-461.8961791992188	-955.4049682617188	1568.882080078125	-353.1703796386719	-1003.806457519531	1535.497924804688	-550.710205078125	-931.8279418945312	887.9570922851562	-643.685546875	-1130.84814453125	868.29541015625	-318.5072631835938	-1013.420471191406	914.3427124023438	-328.568115234375	-887.6554565429688	919.6824340820312	-535.7706909179688	-976.5263061523438	464.9106140136719	-604.6879272460938	-939.4820556640625	621.6392822265625	-616.5729370117188	-1102.611328125	48.30530166625977	-627.044677734375	-1017.491821289062	316.58251953125	-619.0548706054688	-962.7319946289062	40.85701370239258	-474.9913024902344	-1044.46435546875	45.30091094970703	-487.5284729003906	-1004.246398925781	45.95442199707031	-580.2586669921875	-1174.1904296875	45.80547332763672	-597.4877319335938	-1022.172302246094	493.2160034179688	-307.7571716308594	-1083.510620117188	742.8510131835938	-297.269287109375	-1199.319213867188	100.6928558349609	-386.1607055664062	-1045.60546875	353.9942932128906	-316.563720703125	-1017.192077636719	46.86627960205078	-326.1712646484375	-1049.829711914062	60.67993545532227	-391.6185302734375	-1116.724609375	64.11325836181641	-320.2433166503906	-1220.115234375	107.9141235351562	-453.1002502441406	
133	1.32	-1156.405883789062	964.8549194335938	-483.2338256835938	-1088.29248046875	964.9176025390625	-586.625732421875	-1117.456420898438	1041.47265625	-539.9337768554688	-911.9063110351562	1192.24609375	-432.4366149902344	-1125.008544921875	1147.512573242188	-539.44482421875	-1075.329711914062	1374.246948242188	-508.2663269042969	-940.0900268554688	1288.947387695312	-445.3150634765625	-1162.5361328125	1254.748291015625	-458.5581359863281	-1062.2626953125	1322.564575195312	-598.8231811523438	-943.7000732421875	1365.601318359375	-622.635986328125	-935.9202880859375	1241.383056640625	-688.9312133789062	-922.290771484375	1031.836547851562	-717.5830688476562	-1017.41748046875	1025.213989257812	-688.6412353515625	-866.1428833007812	840.6443481445312	-656.3176879882812	-920.794189453125	809.8458251953125	-726.1112670898438	-910.0645141601562	946.3092651367188	-716.0285034179688	-864.975830078125	682.6759643554688	-656.4586181640625	-902.4573364257812	754.9927978515625	-714.302734375	-852.0447998046875	763.4622802734375	-673.922119140625	-1092.292358398438	1363.9541015625	-352.3114929199219	-1138.372436523438	1298.01416015625	-313.1076354980469	-1179.363891601562	1033.358154296875	-282.2727355957031	-1201.390014648438	1019.757385253906	-343.7839050292969	-1100.94873046875	830.1279296875	-239.7306976318359	-1186.78076171875	809.6616821289062	-260.4429016113281	-1184.337158203125	979.25439453125	-274.418701171875	-1102.609252929688	671.171142578125	-235.0284423828125	-1109.615600585938	737.9104614257812	-210.2444000244141	-1171.88623046875	735.5691528320312	-243.3446807861328	-1070.548583984375	1521.622924804688	-407.0387268066406	-886.6546630859375	1581.830078125	-460.6620483398438	-952.7606811523438	1568.371704101562	-352.07275390625	-1001.027526855469	1535.476318359375	-549.7322998046875	-930.6006469726562	887.7163696289062	-643.6703491210938	-1129.426513671875	868.47607421875	-318.2580261230469	-1012.186096191406	914.4853515625	-328.8039245605469	-886.2831420898438	919.3663940429688	-535.908447265625	-976.3322143554688	464.6475524902344	-605.1688842773438	-938.7506103515625	621.4527587890625	-616.8884887695312	-1102.642578125	48.17853927612305	-627.1785278320312	-1017.443481445312	316.522705078125	-619.640869140625	-962.6844482421875	41.11280059814453	-475.1898193359375	-1044.398559570312	45.4157600402832	-487.6606140136719	-1004.262512207031	45.96870040893555	-580.3258666992188	-1174.24609375	45.78848648071289	-597.6026000976562	-1015.33740234375	494.9294128417969	-305.2046203613281	-1080.489379882812	743.7409057617188	-296.3976745605469	-1192.9638671875	103.7288131713867	-385.7857666015625	-1038.47265625	356.1068725585938	-314.4721984863281	-1012.148376464844	48.29717636108398	-323.4439392089844	-1043.596923828125	62.16403961181641	-389.3435974121094	-1111.590209960938	66.51499176025391	-318.8968811035156	-1212.878662109375	110.9899826049805	-453.0010375976562	
134	1.33	-1155.084838867188	964.6409912109375	-483.132568359375	-1086.9345703125	964.8823852539062	-586.453857421875	-1115.817749023438	1041.629638671875	-539.972900390625	-910.2700805664062	1191.799072265625	-431.7091674804688	-1123.056762695312	1147.708374023438	-539.576416015625	-1072.859985351562	1374.29541015625	-507.8896179199219	-938.1051025390625	1288.627197265625	-444.4981079101562	-1160.581787109375	1254.947998046875	-458.7493591308594	-1059.615966796875	1322.7353515625	-598.434814453125	-940.850341796875	1365.609741210938	-621.7347412109375	-932.6929931640625	1241.460205078125	-688.1513061523438	-919.1339111328125	1031.927856445312	-717.1221923828125	-1014.359741210938	1025.331665039062	-688.748291015625	-863.7127075195312	840.39306640625	-655.8882446289062	-918.0236206054688	809.9666137695312	-726.1182861328125	-906.9777221679688	946.3422241210938	-715.6497192382812	-863.5121459960938	682.4279174804688	-656.6373901367188	-899.8362426757812	755.0185546875	-714.3231811523438	-849.766357421875	763.2241821289062	-673.56884765625	-1090.600219726562	1363.775268554688	-352.0046691894531	-1137.062622070312	1297.849365234375	-313.2603454589844	-1179.380493164062	1033.3056640625	-283.4671020507812	-1201.049682617188	1019.98681640625	-345.1844177246094	-1101.86279296875	829.7334594726562	-240.9759216308594	-1187.618041992188	809.5556640625	-262.2529602050781	-1184.61572265625	979.2041015625	-275.7902221679688	-1103.809692382812	670.7957153320312	-236.8538055419922	-1110.85400390625	737.451416015625	-211.8870697021484	-1172.943237304688	735.3294067382812	-245.3526306152344	-1067.93603515625	1521.505737304688	-406.0123291015625	-883.87060546875	1581.31298828125	-459.3548889160156	-950.0827026367188	1567.872680664062	-350.8952026367188	-998.2262573242188	1535.435791015625	-548.6611328125	-929.3472900390625	887.4581298828125	-643.5538330078125	-1127.865234375	868.7021484375	-317.8603210449219	-1010.772033691406	914.6322631835938	-328.9134521484375	-884.8091430664062	919.0397338867188	-535.9736328125	-976.1171264648438	464.380126953125	-605.59033203125	-937.9705200195312	621.2538452148438	-617.14892578125	-1102.669677734375	48.07266998291016	-627.3023071289062	-1017.364868164062	316.4608459472656	-620.1544189453125	-962.6049194335938	41.38980102539062	-475.4117126464844	-1044.335205078125	45.53068161010742	-487.7955017089844	-1004.259033203125	45.99221420288086	-580.4032592773438	-1174.290649414062	45.7752685546875	-597.7136840820312	-1008.9033203125	496.6531066894531	-302.8124389648438	-1077.543701171875	744.6443481445312	-295.4517211914062	-1185.721801757812	105.9926147460938	-384.9091796875	-1031.39990234375	358.0712890625	-312.3312377929688	-1005.837280273438	49.92987060546875	-320.4901428222656	-1036.355834960938	63.6363639831543	-386.8022155761719	-1105.24755859375	68.67649078369141	-317.1383361816406	-1204.914672851562	113.1012420654297	-452.3823852539062	
